<svg width="43" height="44" xmlns="http://www.w3.org/2000/svg" xmlns:xlink="http://www.w3.org/1999/xlink" xml:space="preserve" overflow="hidden"><g transform="translate(-711 -222)"><path d="M13.545 18.275 13.545 24.725C13.545 24.94 13.7063 25.1013 13.975 25.155L29.025 25.155C29.24 25.155 29.4013 24.9938 29.455 24.725L29.455 18.275C29.455 18.06 29.2938 17.8988 29.025 17.845L13.975 17.845C13.76 17.8988 13.5988 18.06 13.545 18.275ZM14.405 18.705 28.6488 18.705 28.6488 24.3488 14.405 24.3488 14.405 18.705Z" stroke="#FFFFFF" stroke-width="0.5375" fill="#FFFFFF" transform="matrix(1 0 0 1.02326 711 222)"/><path d="M20.425 21.07 26.875 21.07 26.875 21.8763 20.425 21.8763Z" stroke="#FFFFFF" stroke-width="0.5375" fill="#FFFFFF" transform="matrix(1 0 0 1.02326 711 222)"/><path d="M25.5313 11.5025 25.9613 12.1475C29.7775 9.5675 31.2288 10.2663 31.9813 11.0188 32.7338 11.7713 33.4325 13.1688 30.9063 16.985L31.5513 17.415C33.755 14.1363 34.0238 11.9325 32.5188 10.4275 31.0675 8.97625 28.7563 9.29875 25.5313 11.5025Z" stroke="#FFFFFF" stroke-width="0.5375" fill="#FFFFFF" transform="matrix(1 0 0 1.02326 711 222)"/><path d="M11.4488 25.585C9.29875 28.81 8.97625 31.0675 10.4813 32.5188 11.0725 33.11 11.8788 33.4863 12.7388 33.4325 13.975 33.4325 15.5338 32.7875 17.4688 31.4975L17.0388 30.8525C13.2763 33.3787 11.825 32.68 11.0725 31.9275 10.32 31.175 9.62125 29.7775 12.1475 25.9613L11.4488 25.585Z" stroke="#FFFFFF" stroke-width="0.5375" fill="#FFFFFF" transform="matrix(1 0 0 1.02326 711 222)"/><path d="M10.4813 10.4813C8.97625 11.9862 9.29875 14.19 11.5025 17.4688L12.1475 17.0388C9.5675 13.2225 10.2663 11.7713 11.0188 11.0725 11.7713 10.32 13.1688 9.62125 16.985 12.1475L17.415 11.5025C14.2438 9.29875 11.9325 8.97625 10.4813 10.4813Z" stroke="#FFFFFF" stroke-width="0.5375" fill="#FFFFFF" transform="matrix(1 0 0 1.02326 711 222)"/><path d="M26.015 30.8525 25.585 31.4975C27.52 32.7875 29.0788 33.4325 30.315 33.4325 31.175 33.4325 31.9813 33.11 32.5725 32.5188 34.0775 31.0138 33.755 28.7563 31.605 25.5313L30.96 25.9613C33.4863 29.7238 32.7875 31.175 32.035 31.9275 31.2288 32.68 29.7775 33.3787 26.015 30.8525Z" stroke="#FFFFFF" stroke-width="0.5375" fill="#FFFFFF" transform="matrix(1 0 0 1.02326 711 222)"/><path d="M21.93 12.9 21.93 6.3425 23.3813 7.79375 23.9725 7.2025 21.8225 5.0525C21.6613 4.89125 21.3925 4.89125 21.2313 5.0525 21.2313 5.0525 21.2313 5.0525 21.2313 5.0525L19.0813 7.2025 19.6725 7.79375 21.1238 6.3425 21.1238 12.9 21.93 12.9Z" stroke="#FFFFFF" stroke-width="0.5375" fill="#FFFFFF" transform="matrix(1 0 0 1.02326 711 222)"/><path d="M21.07 30.1 21.07 36.6575 19.6188 35.2063 19.0275 35.7975 21.1775 37.9475C21.3388 38.1088 21.6075 38.1088 21.7688 37.9475 21.7688 37.9475 21.7688 37.9475 21.7688 37.9475L23.9188 35.7975 23.3275 35.2063 21.8763 36.6575 21.8763 30.1 21.07 30.1Z" stroke="#FFFFFF" stroke-width="0.5375" fill="#FFFFFF" transform="matrix(1 0 0 1.02326 711 222)"/><path d="M7.25625 23.9188 7.8475 23.3275 6.39625 21.8763 11.825 21.8763 11.825 21.07 6.3425 21.07 7.79375 19.6188 7.2025 19.0275 5.0525 21.1775C4.89125 21.3388 4.89125 21.6075 5.0525 21.7688 5.0525 21.7688 5.0525 21.7688 5.0525 21.7688L7.25625 23.9188Z" stroke="#FFFFFF" stroke-width="0.5375" fill="#FFFFFF" transform="matrix(1 0 0 1.02326 711 222)"/><path d="M37.8938 21.2313 35.7438 19.0813 35.1525 19.6725 36.6038 21.1238 31.175 21.1238 31.175 21.93 36.6575 21.93 35.2063 23.3813 35.7975 23.9725 37.9475 21.8225C38.055 21.6075 38.055 21.3925 37.8938 21.2313 37.8938 21.2313 37.8938 21.2313 37.8938 21.2313Z" stroke="#FFFFFF" stroke-width="0.5375" fill="#FFFFFF" transform="matrix(1 0 0 1.02326 711 222)"/><path d="M16.6625 21.5C16.6625 21.7969 16.4219 22.0375 16.125 22.0375 15.8281 22.0375 15.5875 21.7969 15.5875 21.5 15.5875 21.2031 15.8281 20.9625 16.125 20.9625 16.4219 20.9625 16.6625 21.2031 16.6625 21.5Z" stroke="#FFFFFF" stroke-width="0.5375" fill="#FFFFFF" transform="matrix(1 0 0 1.02326 711 222)"/><path d="M18.8125 21.5C18.8125 21.7969 18.5719 22.0375 18.275 22.0375 17.9781 22.0375 17.7375 21.7969 17.7375 21.5 17.7375 21.2031 17.9781 20.9625 18.275 20.9625 18.5719 20.9625 18.8125 21.2031 18.8125 21.5Z" stroke="#FFFFFF" stroke-width="0.5375" fill="#FFFFFF" transform="matrix(1 0 0 1.02326 711 222)"/><path d="M27.95 7.6325C28.0037 7.6325 28.0037 7.6325 28.0037 7.57875L28.2725 6.88 29.455 6.88 29.7238 7.57875C29.7238 7.6325 29.7775 7.6325 29.7775 7.6325L30.3688 7.6325C30.4225 7.6325 30.4225 7.57875 30.4225 7.57875 30.4225 7.57875 30.4225 7.57875 30.4225 7.525L29.24 4.46125C29.24 4.4075 29.1863 4.4075 29.1863 4.4075L28.595 4.4075C28.5413 4.4075 28.5413 4.4075 28.5413 4.46125L27.305 7.525C27.305 7.57875 27.305 7.6325 27.3588 7.6325 27.3588 7.6325 27.3588 7.6325 27.4125 7.6325L27.95 7.6325ZM28.9175 5.21375 29.2938 6.3425 28.4875 6.3425 28.9175 5.21375Z" stroke="#FFFFFF" stroke-width="0.5375" fill="#FFFFFF" transform="matrix(1 0 0 1.02326 711 222)"/><path d="M36.6038 4.8375C36.765 4.8375 36.9263 4.89125 37.0338 4.945 37.195 5.0525 37.2488 5.21375 37.3025 5.375 37.3025 5.42875 37.3563 5.42875 37.3563 5.42875L37.8938 5.42875C37.8938 5.42875 37.9475 5.42875 37.9475 5.42875 37.9475 5.42875 37.9475 5.375 37.9475 5.375 38.0013 5.10625 37.84 4.8375 37.625 4.6225 37.3563 4.35375 36.98 4.24625 36.6038 4.24625 36.2275 4.24625 35.8512 4.35375 35.5288 4.6225 35.2063 4.945 34.9912 5.42875 35.045 5.9125 35.045 6.3425 35.1525 6.7725 35.4213 7.095 35.69 7.4175 36.12 7.6325 36.55 7.57875 36.8725 7.57875 37.2488 7.47125 37.5175 7.25625 37.7863 7.04125 38.0013 6.665 38.0013 6.3425 38.0013 6.28875 37.9475 6.235 37.9475 6.235 37.9475 6.235 37.9475 6.235 37.9475 6.235L37.41 6.235C37.3563 6.235 37.3563 6.28875 37.3563 6.28875 37.3563 6.665 37.0338 6.9875 36.6575 6.9875 36.6575 6.9875 36.6038 6.9875 36.6038 6.9875 36.3887 6.9875 36.2275 6.93375 36.0662 6.7725 35.8512 6.50375 35.7975 6.18125 35.7975 5.9125 35.7975 5.64375 35.8512 5.32125 36.0125 5.10625 36.1738 4.945 36.3887 4.8375 36.6038 4.8375Z" stroke="#FFFFFF" stroke-width="0.5375" fill="#FFFFFF" transform="matrix(1 0 0 1.02326 711 222)"/><path d="M33.97 4.4075 34.5075 4.4075C34.5613 4.4075 34.5613 4.46125 34.5613 4.46125 34.5613 4.46125 34.5613 4.46125 34.5613 4.46125L34.5613 7.525C34.5613 7.57875 34.5075 7.6325 34.4538 7.6325L34.4538 7.6325 33.9163 7.6325C33.8625 7.6325 33.8625 7.57875 33.8625 7.57875 33.8625 7.57875 33.8625 7.57875 33.8625 7.57875L33.8625 4.46125C33.9163 4.46125 33.9163 4.4075 33.97 4.4075 33.97 4.4075 33.97 4.4075 33.97 4.4075Z" stroke="#FFFFFF" stroke-width="0.5375" fill="#FFFFFF" transform="matrix(1 0 0 1.02326 711 222)"/><path d="M32.035 4.35375 31.5513 4.35375 31.5513 4.35375 30.96 4.35375C30.96 4.35375 30.96 4.35375 30.96 4.35375 30.9063 4.35375 30.8525 4.4075 30.8525 4.46125L30.8525 7.57875C30.8525 7.6325 30.9063 7.6325 30.9063 7.6325L31.4975 7.6325C31.5513 7.6325 31.605 7.57875 31.605 7.525L31.605 7.2025 31.605 7.2025 31.605 6.45 32.035 6.45C32.9487 6.45 33.4325 6.1275 33.4325 5.375 33.4863 4.73 33.0563 4.35375 32.035 4.35375ZM32.0888 6.02 31.605 6.02 31.605 4.89125 32.035 4.89125C32.4113 4.89125 32.68 5.0525 32.68 5.4825 32.68 5.85875 32.465 6.02 32.0888 6.02Z" stroke="#FFFFFF" stroke-width="0.5375" fill="#FFFFFF" transform="matrix(1 0 0 1.02326 711 222)"/></g></svg>